<svg width="386" height="58" viewBox="0 0 386 58" xmlns="http://www.w3.org/2000/svg"><g fill="none" fill-rule="evenodd"><path d="M76.258 4.702c1.104 0 2.15.16 3.132.478a8.498 8.498 0 0 1 2.642 1.39 7.53 7.53 0 0 1 1.923 2.258c.506.9.825 1.929.956 3.09h-4.27a3.614 3.614 0 0 0-.505-1.39 4.454 4.454 0 0 0-.984-1.109 4.548 4.548 0 0 0-1.333-.744 4.57 4.57 0 0 0-1.56-.267c-.993 0-1.835.193-2.53.575a4.789 4.789 0 0 0-1.683 1.544 6.767 6.767 0 0 0-.94 2.203 10.903 10.903 0 0 0-.295 2.556c0 .843.097 1.66.295 2.457.197.795.51 1.511.94 2.147a4.833 4.833 0 0 0 1.683 1.53c.695.384 1.537.575 2.53.575 1.35 0 2.4-.411 3.16-1.235.757-.823 1.223-1.91 1.391-3.255h4.27c-.115 1.252-.406 2.385-.871 3.396a8.158 8.158 0 0 1-1.855 2.583 7.925 7.925 0 0 1-2.694 1.628c-1.033.374-2.166.561-3.402.561-1.535 0-2.915-.265-4.14-.8-1.227-.534-2.263-1.267-3.105-2.203-.844-.935-1.49-2.037-1.94-3.3-.45-1.263-.672-2.625-.672-4.084 0-1.498.222-2.886.672-4.17.45-1.28 1.096-2.399 1.94-3.354.842-.954 1.878-1.703 3.105-2.245 1.225-.544 2.605-.815 4.14-.815zm81.202 5.615c1.236 0 2.313.238 3.231.716a6.45 6.45 0 0 1 2.261 1.923 7.909 7.909 0 0 1 1.278 2.752c.26 1.029.356 2.106.282 3.228h-10.477c.056 1.29.381 2.227.984 2.808.598.58 1.46.87 2.581.87.805 0 1.5-.202 2.081-.605.58-.4.937-.828 1.067-1.277h3.51c-.563 1.741-1.422 2.985-2.583 3.734-1.161.749-2.566 1.124-4.215 1.124-1.142 0-2.173-.182-3.087-.549a6.422 6.422 0 0 1-2.333-1.557 7.04 7.04 0 0 1-1.476-2.414c-.346-.937-.516-1.965-.516-3.09 0-1.084.174-2.095.53-3.031a7.125 7.125 0 0 1 1.518-2.429 7.133 7.133 0 0 1 2.346-1.614c.906-.392 1.914-.589 3.018-.589zm-47.215 0c1.234 0 2.312.238 3.231.716a6.443 6.443 0 0 1 2.26 1.923 7.943 7.943 0 0 1 1.28 2.752c.26 1.029.354 2.106.28 3.228H106.82c.056 1.29.382 2.227.984 2.808.598.58 1.46.87 2.581.87.808 0 1.5-.202 2.08-.605.581-.4.938-.828 1.068-1.277h3.51c-.56 1.741-1.422 2.985-2.582 3.734-1.163.749-2.567 1.124-4.215 1.124-1.142 0-2.173-.182-3.089-.549a6.437 6.437 0 0 1-2.332-1.557 7.036 7.036 0 0 1-1.474-2.414c-.348-.937-.518-1.965-.518-3.09 0-1.084.175-2.095.532-3.031a7.12 7.12 0 0 1 1.515-2.429 7.122 7.122 0 0 1 2.349-1.614c.905-.392 1.912-.589 3.017-.589zm37.891.393v14.513h-3.99V10.71h3.99zm-11.882-.393c.768 0 1.48.094 2.136.28a4.32 4.32 0 0 1 1.684.898c.47.414.835.95 1.095 1.616.264.663.395 1.464.395 2.4v9.712h-3.988V17c0-.487-.019-.945-.057-1.376a2.894 2.894 0 0 0-.31-1.122 1.865 1.865 0 0 0-.745-.76c-.327-.185-.77-.28-1.331-.28-.564 0-1.017.108-1.365.324a2.341 2.341 0 0 0-.813.84c-.199.348-.329.74-.395 1.18-.064.44-.097.885-.097 1.335v8.083h-3.988v-8.14c0-.43-.01-.855-.028-1.278-.02-.42-.1-.81-.241-1.165a1.789 1.789 0 0 0-.7-.855c-.33-.216-.812-.323-1.447-.323-.19 0-.434.041-.744.125a2.486 2.486 0 0 0-.898.478c-.292.234-.54.571-.746 1.01-.205.44-.308 1.015-.308 1.728v8.42h-3.99V10.71h3.763v1.965h.057a5.695 5.695 0 0 1 1.896-1.741c.739-.412 1.585-.617 2.541-.617.918 0 1.758.177 2.514.534.761.356 1.337.981 1.73 1.88.43-.637 1.016-1.198 1.753-1.684.742-.487 1.615-.73 2.627-.73zM91.257 5.18v7.55h.083c.506-.84 1.153-1.454 1.94-1.838.788-.384 1.556-.575 2.305-.575 1.067 0 1.942.144 2.625.435.685.29 1.222.693 1.616 1.207.393.514.67 1.143.828 1.881.158.74.238 1.559.238 2.457v8.926h-3.99v-8.196c0-1.197-.185-2.092-.56-2.681-.376-.59-1.038-.884-1.993-.884-1.086 0-1.874.323-2.362.967-.485.647-.73 1.708-.73 3.187v7.607H87.27V5.18h3.987zm66.093 8.141c-.638 0-1.166.108-1.589.323-.42.216-.76.481-1.01.8-.255.319-.43.656-.535 1.01a4.303 4.303 0 0 0-.18.954h6.488c-.188-1.01-.521-1.777-.998-2.302-.48-.523-1.206-.785-2.176-.785zm-47.216 0c-.636 0-1.165.108-1.587.323a2.932 2.932 0 0 0-1.545 1.81 4.42 4.42 0 0 0-.183.954h6.489c-.188-1.01-.52-1.777-.998-2.302-.478-.523-1.205-.785-2.176-.785zm58.27-6.762c.451 0 .882.079 1.294.237.414.156.777.378 1.088.667.317.286.565.636.755 1.044.184.408.28.865.28 1.369 0 .509-.096.97-.28 1.378a3.25 3.25 0 0 1-1.843 1.716 3.69 3.69 0 0 1-1.295.231c-.45 0-.88-.078-1.293-.23a3.302 3.302 0 0 1-1.09-.668 3.272 3.272 0 0 1-.752-1.05 3.318 3.318 0 0 1-.28-1.377c0-.504.095-.96.28-1.37a3.23 3.23 0 0 1 .752-1.043 3.36 3.36 0 0 1 1.09-.667 3.578 3.578 0 0 1 1.293-.237zm0 .713c-.348 0-.677.064-.983.194-.304.13-.57.311-.794.542a2.546 2.546 0 0 0-.535.824c-.13.316-.195.665-.195 1.044s.064.73.195 1.05c.13.319.309.595.535.83.224.234.49.417.794.547.306.13.635.196.982.196.344 0 .67-.066.975-.196.306-.13.572-.313.797-.547a2.695 2.695 0 0 0 .739-1.88 2.656 2.656 0 0 0-.74-1.868 2.462 2.462 0 0 0-1.771-.737zm.081.736c.47 0 .83.084 1.08.25.253.165.378.45.378.853 0 .172-.027.318-.074.44a.762.762 0 0 1-.21.297.926.926 0 0 1-.314.18 1.522 1.522 0 0 1-.382.079l.998 1.626h-.775l-.906-1.591h-.464v1.591h-.737V8.008zm-.045.579h-.624v.978h.659c.213 0 .389-.03.526-.089.136-.059.204-.201.204-.427 0-.1-.025-.18-.072-.24a.46.46 0 0 0-.18-.137.912.912 0 0 0-.25-.068 2.015 2.015 0 0 0-.263-.017zm-20.304-3.409v3.285h-3.99V5.178h3.99z" fill="#919396"/><path d="M223.551 37.923c1.14 0 2.124.216 2.948.645a6.114 6.114 0 0 1 2.051 1.713 7.274 7.274 0 0 1 1.208 2.484c.26.945.393 1.934.393 2.962 0 .973-.134 1.91-.393 2.808a7.166 7.166 0 0 1-1.194 2.387 5.936 5.936 0 0 1-1.994 1.656c-.796.411-1.727.618-2.795.618-.898 0-1.73-.182-2.487-.549a4.682 4.682 0 0 1-1.867-1.614h-.056v6.878h-3.989V38.316h3.793v1.852h.056c.486-.785 1.103-1.355 1.854-1.711.748-.356 1.572-.534 2.472-.534zm-169.735 0c1.236 0 2.312.238 3.23.716a6.465 6.465 0 0 1 2.261 1.923 7.909 7.909 0 0 1 1.278 2.752c.262 1.029.354 2.106.281 3.228H50.39c.057 1.291.384 2.227.983 2.808.598.58 1.46.87 2.585.87.805 0 1.497-.201 2.077-.604.58-.402.937-.83 1.07-1.277h3.51c-.563 1.74-1.423 2.984-2.584 3.733-1.163.749-2.566 1.124-4.214 1.124-1.143 0-2.172-.182-3.09-.549a6.412 6.412 0 0 1-2.331-1.558 6.986 6.986 0 0 1-1.474-2.413c-.348-.937-.52-1.965-.52-3.09 0-1.083.177-2.095.534-3.031a7.12 7.12 0 0 1 1.515-2.429 7.133 7.133 0 0 1 2.347-1.614c.906-.392 1.914-.589 3.02-.589zm61.623 0c.862 0 1.691.112 2.487.337a6.623 6.623 0 0 1 2.135 1.025 5.502 5.502 0 0 1 1.531 1.712c.393.684.617 1.494.673 2.428h-3.904c-.261-1.666-1.245-2.498-2.948-2.498-.638 0-1.172.146-1.601.434-.431.29-.782.666-1.055 1.125A4.928 4.928 0 0 0 112.18 44c-.11.553-.167 1.1-.167 1.644a8.1 8.1 0 0 0 .167 1.6c.114.542.297 1.034.549 1.473.254.44.594.801 1.025 1.08.432.282.956.423 1.574.423.954 0 1.69-.267 2.205-.8.513-.534.838-1.25.968-2.148h3.849c-.263 1.928-1.012 3.396-2.248 4.407-1.236 1.012-2.817 1.517-4.747 1.517-1.084 0-2.082-.182-2.991-.549a6.632 6.632 0 0 1-2.317-1.529 6.981 6.981 0 0 1-1.49-2.345c-.354-.907-.532-1.904-.532-2.988 0-1.124.164-2.167.49-3.13.33-.965.81-1.8 1.448-2.501a6.606 6.606 0 0 1 2.331-1.642c.918-.392 1.966-.589 3.145-.589zm47.246 0c1.142 0 2.176.183 3.102.548.925.364 1.718.879 2.375 1.544.655.664 1.16 1.47 1.517 2.413.355.947.534 1.998.534 3.159 0 1.16-.18 2.21-.534 3.144a6.837 6.837 0 0 1-1.517 2.401 6.667 6.667 0 0 1-2.375 1.53c-.926.355-1.96.534-3.102.534-1.144 0-2.173-.179-3.09-.533a6.649 6.649 0 0 1-2.36-1.53 6.812 6.812 0 0 1-1.517-2.402c-.355-.934-.534-1.984-.534-3.144 0-1.16.18-2.212.534-3.159.356-.943.86-1.75 1.517-2.413a6.777 6.777 0 0 1 2.36-1.544c.917-.365 1.946-.548 3.09-.548zm-124.625 0c.862 0 1.69.112 2.485.337a6.623 6.623 0 0 1 2.135 1.025 5.48 5.48 0 0 1 1.531 1.712c.393.684.617 1.494.674 2.428H40.98c-.261-1.666-1.245-2.498-2.948-2.498-.638 0-1.172.146-1.601.434-.431.29-.782.666-1.054 1.125A4.84 4.84 0 0 0 34.8 44a7.85 7.85 0 0 0 0 3.244c.113.542.296 1.034.55 1.473.252.44.592.801 1.023 1.08.432.282.956.423 1.574.423.956 0 1.69-.267 2.205-.8.515-.534.836-1.25.968-2.148h3.847c-.26 1.928-1.012 3.396-2.244 4.407-1.237 1.012-2.821 1.517-4.749 1.517-1.084 0-2.082-.182-2.99-.549a6.64 6.64 0 0 1-2.318-1.529 6.95 6.95 0 0 1-1.488-2.345c-.356-.907-.534-1.904-.534-2.988 0-1.124.164-2.167.492-3.13a7.038 7.038 0 0 1 1.446-2.501 6.606 6.606 0 0 1 2.331-1.642c.918-.392 1.966-.589 3.147-.589zm200.77 0c1.236 0 2.313.238 3.23.716a6.465 6.465 0 0 1 2.26 1.923 7.847 7.847 0 0 1 1.278 2.752c.263 1.029.357 2.106.28 3.228h-10.474c.055 1.291.382 2.227.982 2.808.6.58 1.462.87 2.585.87.804 0 1.498-.201 2.078-.604.58-.402.936-.83 1.068-1.277h3.51c-.562 1.74-1.423 2.984-2.584 3.733-1.16.749-2.565 1.124-4.213 1.124-1.142 0-2.173-.182-3.089-.549a6.404 6.404 0 0 1-2.333-1.558 6.986 6.986 0 0 1-1.474-2.413c-.347-.937-.52-1.965-.52-3.09 0-1.083.178-2.095.534-3.031a7.125 7.125 0 0 1 1.518-2.429 7.136 7.136 0 0 1 2.343-1.614c.909-.392 1.915-.589 3.02-.589zm-107.633 0c1.236 0 2.314.238 3.23.716a6.45 6.45 0 0 1 2.261 1.923 7.813 7.813 0 0 1 1.276 2.752c.264 1.029.358 2.106.283 3.228h-10.476c.056 1.291.383 2.227.984 2.808.598.58 1.458.87 2.583.87.805 0 1.498-.201 2.079-.604.58-.402.937-.83 1.067-1.277h3.511c-.563 1.74-1.423 2.984-2.584 3.733-1.161.749-2.566 1.124-4.214 1.124-1.142 0-2.172-.182-3.087-.549a6.375 6.375 0 0 1-2.332-1.558 6.963 6.963 0 0 1-1.476-2.413c-.346-.937-.52-1.965-.52-3.09 0-1.083.177-2.095.534-3.031a7.125 7.125 0 0 1 1.517-2.429 7.143 7.143 0 0 1 2.345-1.614c.907-.392 1.914-.589 3.02-.589zm141.43 0c.786 0 1.549.075 2.288.224.742.15 1.4.403 1.981.758.58.356 1.064.829 1.448 1.418.383.59.612 1.334.687 2.232h-3.791c-.058-.766-.346-1.286-.871-1.558-.525-.271-1.142-.407-1.855-.407-.224 0-.467.014-.73.042-.262.028-.5.09-.716.182-.215.094-.398.23-.547.407-.15.179-.225.417-.225.717 0 .355.13.645.393.87.263.225.605.407 1.026.548.42.14.904.266 1.446.379.544.113 1.095.234 1.656.365.58.13 1.148.29 1.7.477a5.51 5.51 0 0 1 1.474.744c.431.31.779.691 1.04 1.15.262.46.394 1.025.394 1.7 0 .953-.193 1.754-.575 2.4a4.643 4.643 0 0 1-1.504 1.558 6.153 6.153 0 0 1-2.12.827 12.314 12.314 0 0 1-4.902-.013 6.502 6.502 0 0 1-2.148-.843 4.815 4.815 0 0 1-1.546-1.558c-.403-.645-.624-1.455-.658-2.428h3.79c0 .431.088.8.267 1.109.179.31.408.561.686.757a3 3 0 0 0 .972.436c.365.094.744.14 1.137.14.281 0 .573-.032.884-.098.31-.066.591-.168.845-.31.252-.14.46-.326.63-.56.166-.233.253-.528.253-.885 0-.599-.398-1.047-1.194-1.348-.796-.299-1.905-.597-3.329-.898a19.652 19.652 0 0 1-1.698-.462 5.814 5.814 0 0 1-1.474-.702 3.367 3.367 0 0 1-1.04-1.096c-.263-.438-.394-.977-.394-1.614 0-.935.183-1.703.548-2.302a4.042 4.042 0 0 1 1.448-1.418 6.347 6.347 0 0 1 2.021-.73c.75-.14 1.518-.21 2.303-.21zm-189.432 0c1.236 0 2.314.238 3.23.716a6.455 6.455 0 0 1 2.263 1.923 7.909 7.909 0 0 1 1.278 2.752c.26 1.029.354 2.106.28 3.228H79.768c.056 1.291.383 2.227.984 2.808.598.58 1.46.87 2.583.87.805 0 1.498-.201 2.079-.604.58-.402.937-.83 1.067-1.277h3.511c-.563 1.74-1.425 2.984-2.586 3.733-1.16.749-2.564 1.124-4.212 1.124-1.142 0-2.172-.182-3.089-.549a6.412 6.412 0 0 1-2.33-1.558 6.963 6.963 0 0 1-1.476-2.413c-.346-.937-.518-1.965-.518-3.09 0-1.083.175-2.095.533-3.031a7.095 7.095 0 0 1 1.516-2.429 7.143 7.143 0 0 1 2.345-1.614c.907-.392 1.914-.589 3.02-.589zm178.899-4.128v4.352h2.922v2.667h-2.922v7.188c0 1.348.337 1.685 1.686 1.685.42 0 .815-.028 1.236-.113v3.115c-.675.113-1.544.142-2.333.142-2.442 0-4.577-.563-4.577-3.453v-8.564h-1.496c-4.01.004-5.225 2.059-5.225 4.77v7.079h-3.99V38.147h3.793v2.598h.056c.773-1.77 2.546-2.598 4.756-2.598h2.106v-4.352h3.988zm23.846 14.712v4.324h-4.41v-4.324h4.41zM100.525 37.923c1.067 0 1.943.145 2.628.435.682.29 1.22.693 1.613 1.207.395.516.671 1.143.83 1.882.158.738.238 1.558.238 2.456v8.927h-3.988v-8.197c0-1.197-.188-2.092-.561-2.68-.376-.592-1.04-.885-1.996-.885-1.086 0-1.872.321-2.359.968-.486.646-.73 1.71-.73 3.186v7.608h-3.989V38.316h3.793v2.02h.083c.506-.84 1.162-1.454 1.966-1.838a5.687 5.687 0 0 1 2.472-.575zM15 32.786v3.706H4.409v4.294h9.72v3.426h-9.72v4.912h10.816v3.706H0V32.786h14.999zm165.857 5.137c.262 0 .553.047.872.141v3.706a7.32 7.32 0 0 0-.676-.1 7.168 7.168 0 0 0-.758-.041c-.73 0-1.347.122-1.853.365a3.215 3.215 0 0 0-1.222.995 4.02 4.02 0 0 0-.66 1.475 8.052 8.052 0 0 0-.196 1.825v6.54h-3.988V38.317h3.791v2.695h.056c.187-.449.441-.866.76-1.25.317-.382.682-.71 1.094-.981a5.361 5.361 0 0 1 1.32-.633c.469-.149.956-.224 1.46-.224zM66.934 32.784V52.83h-3.989V32.784h3.99zm87.8.002v3.706h-9.689v4.631h8.398v3.426h-8.398v8.28h-4.411V32.787h14.1zm43.594 0v3.706H187.74v4.294h9.718v3.426h-9.718v4.912h10.813v3.706H183.33V32.786h15zm-124.57-.002V52.83H69.77V32.784h3.99zm-52.887 5.532l2.555 3.79 2.529-3.79h4.41l-4.777 6.795 5.366 7.719h-4.55l-3.036-4.577-3.033 4.577H15.87l5.225-7.636-4.775-6.878h4.55zm183.297 0l2.557 3.79 2.528-3.79h4.411l-4.776 6.795 5.365 7.719h-4.55l-3.035-4.577-3.033 4.577h-4.466l5.224-7.636-4.773-6.878h4.548zm18.512 2.611c-.657 0-1.204.136-1.646.407a3.316 3.316 0 0 0-1.065 1.053c-.272.43-.463.927-.576 1.488a8.8 8.8 0 0 0-.168 1.741c0 .579.06 1.15.182 1.711.122.562.318 1.053.59 1.475.272.42.632.763 1.082 1.024.449.262.991.394 1.629.394.655 0 1.203-.132 1.643-.394a3.2 3.2 0 0 0 1.067-1.024c.271-.422.466-.913.575-1.475a8.656 8.656 0 0 0 .169-1.71c0-.581-.061-1.153-.183-1.714a4.599 4.599 0 0 0-.603-1.503 3.377 3.377 0 0 0-1.083-1.066c-.44-.271-.978-.407-1.613-.407zm-59.995 0c-.675 0-1.236.136-1.686.407-.45.272-.81.623-1.082 1.053-.27.43-.464.927-.575 1.488a8.656 8.656 0 0 0-.168 1.712c0 .58.055 1.146.168 1.699.111.552.304 1.047.575 1.487.272.441.631.792 1.082 1.053.45.262 1.011.394 1.686.394.674 0 1.239-.132 1.698-.394.459-.26.824-.612 1.095-1.053a4.5 4.5 0 0 0 .577-1.487 8.459 8.459 0 0 0 .169-1.7c0-.578-.056-1.15-.169-1.71a4.365 4.365 0 0 0-.577-1.49 3.213 3.213 0 0 0-1.095-1.052c-.459-.271-1.024-.407-1.698-.407zm-108.982 0c-.636 0-1.164.108-1.587.323-.42.216-.758.482-1.01.8-.253.32-.432.656-.533 1.01a4.534 4.534 0 0 0-.184.956h6.488c-.187-1.011-.52-1.779-.997-2.304-.477-.523-1.203-.785-2.177-.785zm29.381 0c-.636 0-1.166.108-1.587.323a2.932 2.932 0 0 0-1.545 1.81 4.413 4.413 0 0 0-.183.956h6.489c-.188-1.011-.52-1.779-.998-2.304-.476-.523-1.203-.785-2.176-.785zm155.635 0c-.638 0-1.167.108-1.59.323-.42.216-.757.482-1.01.8-.253.32-.43.656-.533 1.01a4.413 4.413 0 0 0-.182.956h6.488c-.187-1.011-.521-1.779-.997-2.304-.478-.523-1.205-.785-2.176-.785zm-107.633 0c-.638 0-1.166.108-1.589.323-.42.216-.758.482-1.01.8-.253.32-.43.656-.533 1.01a4.414 4.414 0 0 0-.183.956h6.489c-.188-1.011-.52-1.779-.998-2.304-.478-.523-1.203-.785-2.176-.785zm-89.178-30.61c.86 0 1.688.111 2.482.337.798.224 1.51.567 2.136 1.025a5.48 5.48 0 0 1 1.532 1.712c.394.684.618 1.494.674 2.428h-3.904c-.262-1.666-1.246-2.498-2.948-2.498-.638 0-1.171.146-1.603.434-.43.29-.782.666-1.053 1.124a4.88 4.88 0 0 0-.575 1.515 7.85 7.85 0 0 0 0 3.244c.113.542.295 1.034.547 1.473.252.44.595.801 1.026 1.08.43.282.954.423 1.573.423.954 0 1.69-.268 2.204-.8.514-.534.838-1.25.968-2.148h3.85c-.262 1.928-1.011 3.396-2.247 4.407-1.236 1.01-2.82 1.517-4.747 1.517-1.087 0-2.083-.182-2.992-.549-.909-.365-1.682-.874-2.317-1.529a6.954 6.954 0 0 1-1.49-2.345c-.354-.907-.533-1.904-.533-2.988a9.69 9.69 0 0 1 .492-3.131 7.038 7.038 0 0 1 1.446-2.5 6.613 6.613 0 0 1 2.333-1.642c.918-.392 1.966-.589 3.146-.589zm-16.657 0c1.142 0 2.176.183 3.104.547.927.365 1.718.88 2.373 1.545.655.664 1.16 1.468 1.517 2.413.355.947.534 1.998.534 3.159 0 1.16-.18 2.21-.534 3.144a6.837 6.837 0 0 1-1.517 2.401 6.602 6.602 0 0 1-2.373 1.529c-.928.356-1.962.535-3.104.535-1.142 0-2.173-.179-3.089-.535a6.613 6.613 0 0 1-2.36-1.529 6.837 6.837 0 0 1-1.518-2.4c-.355-.936-.534-1.985-.534-3.145 0-1.161.18-2.212.534-3.159.356-.945.862-1.75 1.518-2.413a6.768 6.768 0 0 1 2.36-1.545c.916-.364 1.947-.547 3.089-.547zM54.659 5.18v7.55h.084c.506-.84 1.152-1.454 1.938-1.838.787-.384 1.554-.575 2.303-.575 1.067 0 1.943.144 2.626.435.683.29 1.222.693 1.615 1.207.393.514.67 1.143.83 1.881.157.739.237 1.559.237 2.457v8.926h-3.987v-8.196c0-1.197-.188-2.092-.563-2.681-.376-.59-1.038-.884-1.994-.884-1.086 0-1.872.321-2.359.967-.488.647-.73 1.708-.73 3.187v7.607H50.67V5.18h3.99zm-50.25 0v8.31l7.838-8.31h5.505l-7.837 7.915 8.595 12.128h-5.533L6.94 16.212l-2.53 2.556v6.455H0V5.18h4.408zM25.25 13.32c-.675 0-1.236.136-1.685.407a3.27 3.27 0 0 0-1.082 1.052c-.272.431-.463.928-.576 1.49a8.789 8.789 0 0 0-.168 1.71c0 .58.057 1.147.168 1.7.113.552.304 1.047.576 1.487.272.441.632.792 1.082 1.053.449.262 1.01.394 1.685.394.674 0 1.24-.132 1.7-.394a3.03 3.03 0 0 0 1.095-1.053c.27-.44.464-.935.575-1.487a8.459 8.459 0 0 0 .169-1.7c0-.578-.056-1.15-.169-1.71a4.363 4.363 0 0 0-.575-1.49 3.244 3.244 0 0 0-1.095-1.052c-.46-.271-1.026-.407-1.7-.407z" fill="#1E1E1E" fill-rule="nonzero"/><g fill="#1E1E1E"><path d="M386 4v50h-50V4h50zm-2.304 2.305h-45.39v45.39h45.39V6.304zm-5.969 36.129v2.304h-8.744v-2.304h8.744zm-9.865-13.243l.628.963c.177.269.347.543.516.814l.035.059c.182-.29.365-.583.557-.874l.637-.962h2.63l-2.492 3.742 2.645 3.922h-2.703l-.678-1.02c-.22-.332-.432-.653-.64-.98-.192.304-.392.608-.597.92l-.717 1.08h-2.666l2.656-3.894-2.5-3.77h2.69zm-9.133-5.953c2.617 0 4.785 1.44 5.219 4.198H361.3c-.34-1.301-1.333-1.937-2.571-1.937-1.782 0-2.773 1.317-2.773 3.501 0 2.2.991 3.5 2.773 3.5 1.3 0 2.385-.758 2.632-2.23h2.618c-.34 2.943-2.54 4.492-5.25 4.492-3.285 0-5.499-2.215-5.499-5.762 0-3.547 2.137-5.762 5.499-5.762zm-12.353.248v4.771l4.569-4.771h3.191l-4.43 4.508 4.43 6.52h-3.097l-3.176-4.77-1.487 1.472v3.298h-2.617V23.486h2.617zm31.352-10.21v2.303h-8.744v-2.304h8.744z"/></g></g></svg>